<svg width="213" height="52" viewBox="0 0 213 52" fill="none" xmlns="http://www.w3.org/2000/svg">
<path d="M8.37396 6.09336H35.8346V11.7442H43.6434L42.0069 17.395H40.6212V40.2558C41.3161 40.2558 41.8802 40.8306 41.8802 41.5401V43.0806H42.1323C42.8285 43.0806 43.3926 43.6567 43.3926 44.3649V45.9066H29.2835V44.3649C29.2835 43.6567 29.8477 43.0806 30.5439 43.0806H30.7959V41.5401C30.7959 40.9226 31.2227 40.4078 31.7909 40.2838L31.7642 27.6698C31.3187 22.6298 27.1643 18.6794 22.1043 18.6794C17.0443 18.6794 12.8898 22.6298 12.4444 27.6698L12.4177 40.2731C13.0899 40.3745 13.9168 40.9026 13.9168 41.5401V43.0806H14.1688C14.8637 43.0806 15.4278 43.6567 15.4278 44.3649V45.9066H1.32008V44.3649C1.32008 43.6567 1.88423 43.0806 2.57908 43.0806H2.83115V41.5401C2.83115 40.8306 3.3953 40.2558 4.09148 40.2558V17.395H2.70578L1.06801 11.7442H8.37396V6.09336Z" fill="black"/>
<path d="M35.8346 6.09336H35.9266V6H35.8346V6.09336ZM8.37396 6.09336V6H8.28194V6.09336H8.37396ZM35.8346 11.7442L35.7426 11.7442V11.8376H35.8346V11.7442ZM43.6434 11.7442L43.7327 11.7709L43.7674 11.6508H43.6434V11.7442ZM42.0069 17.395V17.4884H42.0749L42.095 17.4217L42.0069 17.395ZM40.6212 17.395V17.3017H40.5292V17.395L40.6212 17.395ZM40.6212 40.2558H40.5292V40.3492H40.6212V40.2558ZM41.8802 43.0806H41.7882V43.1752H41.8802V43.0806ZM43.3926 45.9066V46H43.4833V45.9066H43.3926ZM29.2835 45.9066H29.1915V46H29.2835V45.9066ZM30.7959 43.0806V43.1752H30.888V43.0806H30.7959ZM31.7909 40.2838L31.8109 40.3758L31.8829 40.3598V40.2838H31.7909ZM31.7642 27.6698H31.8562V27.6658L31.8549 27.6618L31.7642 27.6698ZM12.4444 27.6698L12.3524 27.6618V27.6698H12.4444ZM12.4177 40.2731H12.3257L12.3243 40.3545L12.403 40.3665L12.4177 40.2731ZM13.9168 43.0806H13.8247V43.1752H13.9168V43.0806ZM15.4278 45.9066V46H15.5199V45.9066H15.4278ZM1.32008 45.9066H1.22805V46H1.32008V45.9066ZM2.83115 43.0806V43.1752H2.92317V43.0806H2.83115ZM4.09148 40.2558V40.3492H4.18351V40.2558H4.09148ZM4.09148 17.395L4.18351 17.395V17.3017H4.09148V17.395ZM2.70578 17.395L2.61776 17.4217L2.63643 17.4884H2.70578V17.395ZM1.06801 11.7442V11.6508H0.945312L0.979988 11.7709L1.06801 11.7442ZM8.37396 11.7442V11.8376H8.46599V11.7442L8.37396 11.7442ZM35.8346 6H8.37396V6.18672H35.8346V6ZM35.9266 11.7442V6.09336H35.7426V11.7442H35.9266ZM43.6434 11.6508H35.8346V11.8376H43.6434V11.6508ZM42.095 17.4217L43.7327 11.7709L43.5553 11.7175L41.9176 17.3684L42.095 17.4217ZM40.6212 17.4884H42.0069V17.3017H40.6212V17.4884ZM40.7132 40.2558V17.395H40.5292V40.2558H40.7132ZM41.9723 41.5401C41.9723 40.7786 41.3668 40.1624 40.6212 40.1624V40.3492C41.2654 40.3492 41.7882 40.8826 41.7882 41.5401H41.9723ZM41.9723 43.0806V41.5401H41.7882V43.0806H41.9723ZM42.1323 42.9872H41.8802V43.1752H42.1323V42.9872ZM43.4833 44.3649C43.4833 43.6047 42.8792 42.9872 42.1323 42.9872V43.1752C42.7778 43.1752 43.3006 43.7074 43.3006 44.3649H43.4833ZM43.4833 45.9066V44.3649H43.3006V45.9066H43.4833ZM35.8346 46H43.3926V45.8133H35.8346V46ZM31.8029 46H35.8346V45.8133H31.8029V46ZM29.2835 46H31.8029V45.8133H29.2835V46ZM29.1915 44.3649V45.9066H29.3756V44.3649H29.1915ZM30.5439 42.9872C29.797 42.9872 29.1915 43.6047 29.1915 44.3649H29.3756C29.3756 43.7074 29.8984 43.1752 30.5439 43.1752V42.9872ZM30.7959 42.9872H30.5439V43.1752H30.7959V42.9872ZM30.7039 41.5401V43.0806H30.888V41.5401H30.7039ZM31.7722 40.1918C31.1614 40.3252 30.7039 40.8773 30.7039 41.5401H30.888C30.888 40.968 31.2827 40.4905 31.8109 40.3758L31.7722 40.1918ZM31.6722 27.6698L31.6988 40.2838H31.8829L31.8562 27.6698H31.6722ZM22.1043 18.7727C27.115 18.7727 31.2307 22.6858 31.6722 27.6778L31.8549 27.6618C31.4054 22.5738 27.2123 18.586 22.1043 18.586V18.7727ZM12.5364 27.6778C12.9779 22.6858 17.0923 18.7727 22.1043 18.7727V18.586C16.9963 18.586 12.8031 22.5738 12.3524 27.6618L12.5364 27.6778ZM12.5097 40.2731L12.5364 27.6698H12.3524L12.3257 40.2731H12.5097ZM14.0088 41.5401C14.0088 41.1787 13.7754 40.864 13.474 40.6306C13.1712 40.3972 12.7818 40.2331 12.431 40.1811L12.403 40.3665C12.7245 40.4145 13.0845 40.5652 13.3633 40.7799C13.6447 40.9973 13.8247 41.2641 13.8247 41.5401H14.0088ZM14.0088 43.0806V41.5401H13.8247V43.0806H14.0088ZM14.1688 42.9872H13.9168V43.1752H14.1688V42.9872ZM15.5199 44.3649C15.5199 43.6047 14.9144 42.9872 14.1688 42.9872V43.1752C14.813 43.1752 15.3358 43.7074 15.3358 44.3649H15.5199ZM15.5199 45.9066V44.3649H15.3358V45.9066H15.5199ZM12.4044 46H15.4278V45.8133H12.4044V46ZM12.195 46H12.4044V45.8133H12.195V46ZM8.37396 46H12.195V45.8133H8.37396V46ZM1.32008 46H8.37396V45.8133H1.32008V46ZM1.22805 44.3649V45.9066H1.4121V44.3649H1.22805ZM2.57908 42.9872C1.83355 42.9872 1.22805 43.6047 1.22805 44.3649H1.4121C1.4121 43.7074 1.93491 43.1752 2.57908 43.1752V42.9872ZM2.83115 42.9872H2.57908V43.1752H2.83115V42.9872ZM2.73912 41.5401V43.0806H2.92317V41.5401H2.73912ZM4.09148 40.1624C3.34462 40.1624 2.73912 40.7786 2.73912 41.5401H2.92317C2.92317 40.8826 3.44598 40.3492 4.09148 40.3492V40.1624ZM3.99946 17.395V40.2558H4.18351V17.395H3.99946ZM2.70578 17.4884H4.09148V17.3017H2.70578V17.4884ZM0.979988 11.7709L2.61776 17.4217L2.79381 17.3684L1.15604 11.7175L0.979988 11.7709ZM8.37396 11.6508H1.06801V11.8376H8.37396V11.6508ZM8.28194 6.09336V11.7442H8.46599V6.09336H8.28194Z" fill="black"/>
<path d="M71.3852 20.1016V24.0421H59.7116V20.1016H71.3852ZM62.3838 39.0158V18.7348C62.3838 17.3639 62.6506 16.2269 63.1842 15.3239C63.726 14.4208 64.4648 13.7436 65.4007 13.2921C66.3365 12.8406 67.3996 12.6148 68.59 12.6148C69.3945 12.6148 70.1292 12.6764 70.7942 12.7995C71.4673 12.9226 71.9681 13.0335 72.2964 13.132L71.3606 17.0724C71.1554 17.0068 70.9009 16.9452 70.5971 16.8877C70.3016 16.8303 69.9979 16.8015 69.6859 16.8015C68.9142 16.8015 68.3765 16.9821 68.0728 17.3433C67.769 17.6963 67.6172 18.193 67.6172 18.8333V39.0158H62.3838Z" fill="black"/>
<path d="M79.3061 39.3729C78.0994 39.3729 77.024 39.1635 76.0799 38.7449C75.1358 38.318 74.3888 37.69 73.8388 36.8609C73.2969 36.0235 73.026 34.9809 73.026 33.7331C73.026 32.6823 73.219 31.7998 73.6048 31.0856C73.9906 30.3714 74.516 29.7968 75.181 29.3617C75.8459 28.9266 76.6012 28.5982 77.4467 28.3766C78.3005 28.1549 79.1953 27.999 80.1312 27.9087C81.2312 27.7937 82.1178 27.687 82.791 27.5885C83.4641 27.4818 83.9526 27.3258 84.2563 27.1206C84.5601 26.9153 84.7119 26.6116 84.7119 26.2093V26.1355C84.7119 25.3556 84.4656 24.7522 83.9731 24.3253C83.4887 23.8984 82.7992 23.685 81.9044 23.685C80.9603 23.685 80.2091 23.8943 79.6509 24.313C79.0927 24.7235 78.7233 25.2406 78.5427 25.8645L73.691 25.4705C73.9373 24.3212 74.4216 23.3279 75.144 22.4905C75.8664 21.645 76.7982 20.9965 77.9393 20.5449C79.0886 20.0852 80.4185 19.8554 81.929 19.8554C82.9798 19.8554 83.9854 19.9785 84.9459 20.2248C85.9146 20.4711 86.7725 20.8528 87.5195 21.37C88.2747 21.8872 88.8699 22.5521 89.305 23.3648C89.7401 24.1693 89.9576 25.1339 89.9576 26.2586V39.0158H84.9828V36.3929H84.8351C84.5313 36.984 84.125 37.5053 83.616 37.9568C83.107 38.4001 82.4954 38.749 81.7812 39.0035C81.067 39.2497 80.242 39.3729 79.3061 39.3729ZM80.8084 35.7526C81.5801 35.7526 82.2615 35.6007 82.8525 35.297C83.4436 34.985 83.9074 34.5664 84.244 34.041C84.5806 33.5156 84.7489 32.9204 84.7489 32.2555V30.2483C84.5847 30.355 84.3589 30.4535 84.0716 30.5438C83.7925 30.6259 83.4764 30.7039 83.1234 30.7778C82.7704 30.8435 82.4174 30.905 82.0644 30.9625C81.7114 31.0118 81.3913 31.0569 81.104 31.098C80.4883 31.1883 79.9506 31.3319 79.4908 31.5289C79.0311 31.726 78.674 31.9928 78.4195 32.3293C78.165 32.6577 78.0378 33.0682 78.0378 33.5607C78.0378 34.2749 78.2964 34.8208 78.8136 35.1985C79.339 35.5679 80.0039 35.7526 80.8084 35.7526Z" fill="black"/>
<path d="M94.0274 39.0158V20.1016H99.113V23.4018H99.31C99.6548 22.2278 100.234 21.3412 101.046 20.742C101.859 20.1345 102.795 19.8307 103.854 19.8307C104.117 19.8307 104.4 19.8472 104.704 19.88C105.007 19.9128 105.274 19.958 105.504 20.0154V24.6701C105.258 24.5962 104.917 24.5305 104.482 24.4731C104.047 24.4156 103.649 24.3869 103.287 24.3869C102.516 24.3869 101.826 24.5552 101.219 24.8918C100.619 25.2201 100.143 25.6798 99.7903 26.2709C99.4455 26.862 99.2731 27.5433 99.2731 28.315V39.0158H94.0274Z" fill="black"/>
<path d="M115.881 39.3852C113.944 39.3852 112.278 38.9747 110.882 38.1538C109.495 37.3247 108.427 36.1754 107.68 34.7059C106.942 33.2365 106.572 31.5454 106.572 29.6326C106.572 27.6952 106.946 25.9959 107.693 24.5346C108.448 23.0652 109.519 21.92 110.907 21.0991C112.294 20.2699 113.944 19.8554 115.857 19.8554C117.507 19.8554 118.952 20.155 120.191 20.7543C121.431 21.3536 122.412 22.195 123.134 23.2786C123.857 24.3623 124.255 25.6347 124.329 27.0959H119.379C119.239 26.1519 118.87 25.3925 118.27 24.8179C117.679 24.235 116.904 23.9436 115.943 23.9436C115.13 23.9436 114.42 24.1652 113.813 24.6085C113.213 25.0436 112.746 25.6798 112.409 26.5172C112.072 27.3545 111.904 28.3684 111.904 29.5587C111.904 30.7655 112.068 31.7916 112.397 32.6372C112.733 33.4827 113.205 34.1272 113.813 34.5705C114.42 35.0138 115.13 35.2354 115.943 35.2354C116.542 35.2354 117.08 35.1123 117.556 34.866C118.04 34.6197 118.439 34.2626 118.751 33.7947C119.071 33.3186 119.28 32.748 119.379 32.0831H124.329C124.247 33.5279 123.853 34.8003 123.147 35.9004C122.449 36.9922 121.484 37.846 120.253 38.4617C119.022 39.0774 117.564 39.3852 115.881 39.3852Z" fill="black"/>
<path d="M133.081 39.3729C131.874 39.3729 130.799 39.1635 129.855 38.7449C128.911 38.318 128.164 37.69 127.614 36.8609C127.072 36.0235 126.801 34.9809 126.801 33.7331C126.801 32.6823 126.994 31.7998 127.38 31.0856C127.765 30.3714 128.291 29.7968 128.956 29.3617C129.621 28.9266 130.376 28.5982 131.221 28.3766C132.075 28.1549 132.97 27.999 133.906 27.9087C135.006 27.7937 135.893 27.687 136.566 27.5885C137.239 27.4818 137.727 27.3258 138.031 27.1206C138.335 26.9153 138.487 26.6116 138.487 26.2093V26.1355C138.487 25.3556 138.24 24.7522 137.748 24.3253C137.263 23.8984 136.574 23.685 135.679 23.685C134.735 23.685 133.984 23.8943 133.426 24.313C132.867 24.7235 132.498 25.2406 132.317 25.8645L127.466 25.4705C127.712 24.3212 128.196 23.3279 128.919 22.4905C129.641 21.645 130.573 20.9965 131.714 20.5449C132.863 20.0852 134.193 19.8554 135.704 19.8554C136.755 19.8554 137.76 19.9785 138.721 20.2248C139.689 20.4711 140.547 20.8528 141.294 21.37C142.05 21.8872 142.645 22.5521 143.08 23.3648C143.515 24.1693 143.732 25.1339 143.732 26.2586V39.0158H138.758V36.3929H138.61C138.306 36.984 137.9 37.5053 137.391 37.9568C136.882 38.4001 136.27 38.749 135.556 39.0035C134.842 39.2497 134.017 39.3729 133.081 39.3729ZM134.583 35.7526C135.355 35.7526 136.036 35.6007 136.627 35.297C137.218 34.985 137.682 34.5664 138.019 34.041C138.355 33.5156 138.524 32.9204 138.524 32.2555V30.2483C138.359 30.355 138.134 30.4535 137.846 30.5438C137.567 30.6259 137.251 30.7039 136.898 30.7778C136.545 30.8435 136.192 30.905 135.839 30.9625C135.486 31.0118 135.166 31.0569 134.879 31.098C134.263 31.1883 133.725 31.3319 133.266 31.5289C132.806 31.726 132.449 31.9928 132.194 32.3293C131.94 32.6577 131.813 33.0682 131.813 33.5607C131.813 34.2749 132.071 34.8208 132.588 35.1985C133.114 35.5679 133.779 35.7526 134.583 35.7526Z" fill="black"/>
<path d="M163.539 25.4951L158.737 25.7907C158.655 25.3802 158.478 25.0108 158.207 24.6824C157.936 24.3458 157.579 24.079 157.136 23.882C156.701 23.6768 156.18 23.5742 155.572 23.5742C154.759 23.5742 154.074 23.7466 153.516 24.0913C152.958 24.4279 152.678 24.8794 152.678 25.4459C152.678 25.8974 152.859 26.2791 153.22 26.5911C153.581 26.903 154.201 27.1534 155.08 27.3422L158.503 28.0318C160.342 28.4094 161.713 29.0169 162.616 29.8542C163.519 30.6916 163.97 31.7916 163.97 33.1544C163.97 34.394 163.605 35.4817 162.874 36.4176C162.152 37.3534 161.159 38.084 159.894 38.6094C158.638 39.1266 157.189 39.3852 155.548 39.3852C153.044 39.3852 151.049 38.8639 149.563 37.8213C148.085 36.7705 147.219 35.3421 146.965 33.5361L152.124 33.2652C152.28 34.0287 152.658 34.6115 153.257 35.0138C153.856 35.4078 154.624 35.6048 155.56 35.6048C156.479 35.6048 157.218 35.4283 157.776 35.0753C158.343 34.7141 158.63 34.2503 158.638 33.6839C158.63 33.2077 158.429 32.8178 158.035 32.514C157.641 32.2021 157.033 31.964 156.213 31.7998L152.937 31.1472C151.09 30.7778 149.715 30.1375 148.812 29.2262C147.917 28.315 147.47 27.1534 147.47 25.7414C147.47 24.5264 147.798 23.4798 148.455 22.6014C149.12 21.723 150.051 21.0457 151.25 20.5696C152.457 20.0934 153.869 19.8554 155.486 19.8554C157.875 19.8554 159.755 20.3602 161.126 21.37C162.505 22.3797 163.309 23.7548 163.539 25.4951Z" fill="black"/>
<path d="M177.334 20.1016V24.0421H165.944V20.1016H177.334ZM168.53 15.5701H173.775V33.2036C173.775 33.688 173.849 34.0656 173.997 34.3365C174.145 34.5992 174.35 34.7839 174.613 34.8906C174.883 34.9973 175.195 35.0507 175.548 35.0507C175.795 35.0507 176.041 35.0302 176.287 34.9891C176.534 34.9399 176.722 34.9029 176.854 34.8783L177.679 38.7818C177.416 38.8639 177.047 38.9583 176.57 39.065C176.094 39.18 175.516 39.2497 174.834 39.2744C173.57 39.3236 172.462 39.1553 171.509 38.7695C170.565 38.3837 169.831 37.7844 169.305 36.9717C168.78 36.159 168.521 35.1328 168.53 33.8932V15.5701Z" fill="black"/>
<path d="M189.168 39.3852C187.222 39.3852 185.547 38.9912 184.143 38.2031C182.748 37.4068 181.673 36.2821 180.917 34.8291C180.162 33.3678 179.784 31.6398 179.784 29.6449C179.784 27.6993 180.162 25.9918 180.917 24.5223C181.673 23.0529 182.736 21.9077 184.107 21.0868C185.486 20.2658 187.103 19.8554 188.958 19.8554C190.206 19.8554 191.368 20.0565 192.443 20.4588C193.527 20.8528 194.471 21.448 195.275 22.2443C196.088 23.0406 196.72 24.0421 197.172 25.2489C197.623 26.4474 197.849 27.8512 197.849 29.4602V30.9009H181.878V27.6501H192.911C192.911 26.8948 192.747 26.2258 192.418 25.6429C192.09 25.06 191.634 24.6044 191.052 24.2761C190.477 23.9395 189.808 23.7712 189.044 23.7712C188.248 23.7712 187.542 23.9559 186.926 24.3253C186.319 24.6865 185.843 25.175 185.498 25.7907C185.153 26.3981 184.977 27.0754 184.969 27.8225V30.9132C184.969 31.8491 185.141 32.6577 185.486 33.3391C185.839 34.0204 186.335 34.5458 186.976 34.9153C187.616 35.2847 188.375 35.4694 189.254 35.4694C189.837 35.4694 190.37 35.3873 190.855 35.2231C191.339 35.0589 191.753 34.8126 192.098 34.4843C192.443 34.1559 192.706 33.7536 192.886 33.2775L197.738 33.5977C197.492 34.7634 196.987 35.7813 196.223 36.6515C195.468 37.5135 194.491 38.1866 193.293 38.671C192.102 39.1471 190.727 39.3852 189.168 39.3852Z" fill="black"/>
<path d="M201.272 39.0158V20.1016H206.358V23.4018H206.555C206.9 22.2278 207.478 21.3412 208.291 20.742C209.104 20.1345 210.04 19.8307 211.099 19.8307C211.361 19.8307 211.645 19.8472 211.948 19.88C212.252 19.9128 212.519 19.958 212.749 20.0154V24.6701C212.502 24.5962 212.162 24.5305 211.727 24.4731C211.292 24.4156 210.893 24.3869 210.532 24.3869C209.76 24.3869 209.071 24.5552 208.463 24.8918C207.864 25.2201 207.388 25.6798 207.035 26.2709C206.69 26.862 206.518 27.5433 206.518 28.315V39.0158H201.272Z" fill="black"/>
</svg>
