<svg width="108" height="42" viewBox="0 0 108 42" fill="none" xmlns="http://www.w3.org/2000/svg">
<g clip-path="url(#clip0_1844_38661)">
<path d="M40.2347 25.4485L40.1816 25.5042C40.1569 25.5298 40.1317 25.5553 40.1064 25.5806L25.5609 40.1027C23.027 42.6325 18.9189 42.6325 16.385 40.1027L12.3683 36.0926C12.0835 35.8094 12.0829 35.3488 12.3664 35.0644C12.4498 34.9807 12.5523 34.9186 12.6651 34.8834C16.9704 33.5544 20.4687 32.0202 23.1597 30.2811C29.5686 26.1391 35.2602 24.5282 40.2347 25.4485ZM37.1852 13.5024C42.5556 15.1947 41.9288 19.1453 42 20.7028C36.1187 17.6188 29.0433 18.7492 20.7739 24.0937C14.6102 28.0772 9.4472 29.7195 5.28483 29.0208C1.12245 28.322 0.186141 23.2386 0 21.8878C4.57369 24.2003 10.7031 22.873 18.388 17.9063C25.5492 13.2782 31.8149 11.8102 37.1852 13.5024ZM25.5609 1.89732L29.3351 5.66495C29.6194 5.9486 29.6198 6.40916 29.3362 6.69347C29.235 6.79491 29.1061 6.86417 28.9657 6.89246C23.5019 7.99318 19.1322 9.60202 15.8567 11.719C10.2438 15.3466 5.46063 17.0326 1.5073 16.7773L1.50773 16.7762L16.385 1.89732C18.9189 -0.63244 23.027 -0.63244 25.5609 1.89732Z" fill="black"/>
</g>
<g clip-path="url(#clip1_1844_38661)">
<path d="M61.592 17.3402C61.5173 16.6406 61.2022 16.096 60.6468 15.7061C60.0968 15.3163 59.3812 15.1214 58.5001 15.1214C57.8807 15.1214 57.3493 15.2148 56.9061 15.4017C56.4629 15.5886 56.1238 15.8423 55.8888 16.1627C55.6538 16.4831 55.5337 16.8489 55.5283 17.2601C55.5283 17.6019 55.6058 17.8982 55.7606 18.1492C55.9208 18.4002 56.1371 18.6138 56.4095 18.79C56.6818 18.9609 56.9835 19.1051 57.3146 19.2226C57.6457 19.3401 57.9795 19.4388 58.3159 19.519L59.8538 19.9034C60.4733 20.0476 61.0687 20.2426 61.6401 20.4881C62.2169 20.7338 62.7321 21.0435 63.1861 21.4173C63.6453 21.7911 64.0084 22.2424 64.2754 22.771C64.5424 23.2998 64.6759 23.9192 64.6759 24.6294C64.6759 25.5906 64.4303 26.4371 63.939 27.1686C63.4477 27.8949 62.7375 28.4636 61.8083 28.8748C60.8845 29.2806 59.7657 29.4836 58.4521 29.4836C57.1758 29.4836 56.0677 29.286 55.1278 28.8909C54.1933 28.4956 53.4617 27.9189 52.9331 27.1606C52.4097 26.4023 52.1267 25.4785 52.084 24.3891H55.0077C55.0504 24.9605 55.2266 25.4357 55.5364 25.8149C55.8461 26.194 56.2493 26.4771 56.7459 26.664C57.2479 26.8509 57.8086 26.9444 58.428 26.9444C59.0742 26.9444 59.6402 26.8483 60.1262 26.656C60.6175 26.4584 61.002 26.1861 61.2796 25.8389C61.5573 25.4865 61.6989 25.0754 61.7042 24.6054C61.6989 24.1782 61.5733 23.8257 61.3277 23.548C61.082 23.265 60.7376 23.03 60.2944 22.8432C59.8565 22.6509 59.3438 22.48 58.7564 22.3305L56.8901 21.8499C55.539 21.5028 54.471 20.9768 53.686 20.2719C52.9064 19.5617 52.5165 18.6192 52.5165 17.4443C52.5165 16.4778 52.7782 15.6314 53.3015 14.9051C53.8302 14.1789 54.5484 13.6155 55.4563 13.215C56.3641 12.8091 57.392 12.6062 58.5402 12.6062C59.7043 12.6062 60.7243 12.8091 61.6 13.215C62.4811 13.6155 63.1727 14.1735 63.6747 14.8891C64.1766 15.5993 64.4356 16.4164 64.4517 17.3402H61.592ZM69.7363 29.2353L66.26 16.9317H69.2157L71.3785 25.5827H71.4905L73.7014 16.9317H76.6251L78.8358 25.5346H78.956L81.0867 16.9317H84.0504L80.5661 29.2353H77.5462L75.2393 20.9207H75.0711L72.7642 29.2353H69.7363ZM91.1695 29.4756C89.9359 29.4756 88.8705 29.2192 87.9735 28.7066C87.0817 28.1886 86.3954 27.457 85.9148 26.5118C85.4342 25.5612 85.1939 24.4425 85.1939 23.1556C85.1939 21.89 85.4342 20.7792 85.9148 19.8233C86.4008 18.8621 87.079 18.1145 87.9494 17.5805C88.8198 17.0412 89.8425 16.7715 91.0173 16.7715C91.7755 16.7715 92.4912 16.8943 93.164 17.1399C93.8422 17.3802 94.4403 17.7541 94.9582 18.2614C95.4816 18.7687 95.8928 19.4148 96.1918 20.1998C96.4909 20.9795 96.6404 21.9086 96.6404 22.9873V23.8765H86.5556V21.922H93.8609C93.8555 21.3666 93.7354 20.8726 93.5004 20.4401C93.2655 20.0022 92.9371 19.6578 92.5152 19.4068C92.0987 19.1558 91.6127 19.0303 91.0573 19.0303C90.4646 19.0303 89.9439 19.1745 89.4954 19.4629C89.0468 19.7459 88.697 20.1197 88.446 20.5843C88.2004 21.0435 88.0749 21.5482 88.0696 22.0982V23.8044C88.0696 24.52 88.2004 25.1341 88.4621 25.6467C88.7237 26.154 89.0895 26.5439 89.5594 26.8162C90.0293 27.0832 90.5794 27.2167 91.2095 27.2167C91.6314 27.2167 92.0132 27.158 92.355 27.0405C92.6967 26.9177 92.9931 26.7387 93.2441 26.5038C93.4951 26.2688 93.6846 25.9778 93.8128 25.6307L96.5202 25.935C96.3493 26.6506 96.0236 27.2754 95.543 27.8095C95.0678 28.3381 94.459 28.7493 93.7167 29.043C92.9744 29.3314 92.1254 29.4756 91.1695 29.4756ZM101.993 12.8305V29.2353H99.0935V12.8305H101.993ZM107.875 12.8305V29.2353H104.975V12.8305H107.875Z" fill="black"/>
</g>
<defs>
<clipPath id="clip0_1844_38661">
<rect width="42" height="42" fill="white"/>
</clipPath>
<clipPath id="clip1_1844_38661">
<rect width="56" height="18.1176" fill="white" transform="translate(51.8823 11.9412)"/>
</clipPath>
</defs>
</svg>
