<svg width="140" height="53" viewBox="0 0 140 53" fill="none" xmlns="http://www.w3.org/2000/svg">
<g clip-path="url(#clip0_160_11954)">
<path d="M59.0085 45V24.6364H66.804C68.2756 24.6364 69.4986 24.8684 70.473 25.3324C71.4541 25.7898 72.1866 26.4162 72.6705 27.2116C73.161 28.0071 73.4062 28.9086 73.4062 29.9162C73.4062 30.7448 73.2472 31.4541 72.929 32.044C72.6108 32.6274 72.1832 33.1013 71.6463 33.4659C71.1094 33.8305 70.5095 34.0923 69.8466 34.2514V34.4503C70.5691 34.4901 71.2618 34.7121 71.9247 35.1165C72.5942 35.5142 73.1411 36.0777 73.5653 36.8068C73.9896 37.536 74.2017 38.4176 74.2017 39.4517C74.2017 40.5057 73.9465 41.4536 73.4361 42.2955C72.9257 43.1307 72.1567 43.7902 71.1293 44.2741C70.1018 44.758 68.8092 45 67.2514 45H59.0085ZM62.6974 41.9176H66.6648C68.0038 41.9176 68.9683 41.6624 69.5582 41.152C70.1548 40.6349 70.4531 39.9721 70.4531 39.1634C70.4531 38.5601 70.304 38.0166 70.0057 37.5327C69.7074 37.0421 69.2831 36.6577 68.733 36.3793C68.1828 36.0942 67.5265 35.9517 66.7642 35.9517H62.6974V41.9176ZM62.6974 33.2969H66.3466C66.983 33.2969 67.5563 33.1809 68.0668 32.9489C68.5772 32.7102 68.9782 32.3755 69.2699 31.9446C69.5682 31.5071 69.7173 30.9901 69.7173 30.3935C69.7173 29.6046 69.4389 28.955 68.8821 28.4446C68.3319 27.9342 67.5133 27.679 66.4261 27.679H62.6974V33.2969ZM90.2475 24.6364H93.9364V37.9403C93.9364 39.3987 93.5917 40.6813 92.9023 41.7884C92.2196 42.8954 91.2584 43.7604 90.0188 44.3835C88.7792 45 87.3308 45.3082 85.6737 45.3082C84.0098 45.3082 82.5581 45 81.3185 44.3835C80.079 43.7604 79.1178 42.8954 78.435 41.7884C77.7522 40.6813 77.4109 39.3987 77.4109 37.9403V24.6364H81.0998V37.6321C81.0998 38.4806 81.2854 39.2363 81.6566 39.8991C82.0344 40.562 82.5647 41.0824 83.2475 41.4602C83.9303 41.8314 84.739 42.017 85.6737 42.017C86.6083 42.017 87.417 41.8314 88.0998 41.4602C88.7892 41.0824 89.3195 40.562 89.6907 39.8991C90.0619 39.2363 90.2475 38.4806 90.2475 37.6321V24.6364ZM101.635 24.6364V45H97.946V24.6364H101.635ZM105.63 45V24.6364H109.319V41.9077H118.287V45H105.63ZM128.39 45H121.489V24.6364H128.529C130.551 24.6364 132.287 25.044 133.739 25.8594C135.197 26.6681 136.318 27.8314 137.1 29.3494C137.882 30.8674 138.273 32.6837 138.273 34.7983C138.273 36.9195 137.879 38.7424 137.09 40.267C136.308 41.7917 135.177 42.9616 133.699 43.777C132.228 44.5923 130.458 45 128.39 45ZM125.178 41.8082H128.211C129.629 41.8082 130.812 41.5497 131.76 41.0327C132.708 40.509 133.421 39.7301 133.898 38.696C134.375 37.6553 134.614 36.3561 134.614 34.7983C134.614 33.2405 134.375 31.9479 133.898 30.9205C133.421 29.8864 132.715 29.1141 131.78 28.6037C130.852 28.0866 129.699 27.8281 128.32 27.8281H125.178V41.8082Z" fill="black"/>
<path d="M58.0094 10.0706C57.9816 9.30655 58.1092 8.54477 58.3849 7.83099C58.6605 7.11721 59.0784 6.46624 59.6134 5.91712C60.1484 5.368 60.7895 4.93201 61.4982 4.63547C62.207 4.33884 62.9687 4.18778 63.7376 4.19122C66.6349 4.19122 68.3497 5.8815 68.8671 7.86583L67.0489 8.47577C66.8888 7.73601 66.4659 7.07833 65.8578 6.62341C65.2496 6.16849 64.4968 5.94688 63.7376 5.9991C61.8602 5.9991 59.9829 7.35869 59.9829 10.1073C59.9829 12.8559 61.8159 14.164 63.7597 14.164C64.5232 14.1861 65.2719 13.9525 65.8858 13.5007C66.4997 13.0489 66.9431 12.4051 67.145 11.6727L68.9114 12.246C68.609 13.3642 67.9308 14.3457 66.9896 15.0276C66.0484 15.7095 64.9007 16.0505 63.7376 15.994C62.9617 16.0084 62.1913 15.8634 61.4745 15.5678C60.7577 15.2722 60.1101 14.8326 59.5723 14.2764C59.0345 13.7202 58.618 13.0595 58.3491 12.3358C58.0802 11.612 57.9645 10.8409 58.0094 10.0706Z" fill="black"/>
<path d="M72.4152 15.7222H70.5527V4.16187H72.4152V8.69633C72.6866 8.37734 73.027 8.12372 73.411 7.95442C73.7951 7.78512 74.2128 7.70459 74.6326 7.71888C76.5617 7.71888 77.493 9.09318 77.493 10.8056V15.7222H75.6822V11.1215C75.7162 10.8978 75.6989 10.6692 75.6318 10.4529C75.5647 10.2367 75.4495 10.0382 75.2948 9.87225C75.1399 9.70639 74.9496 9.57726 74.7377 9.4945C74.5258 9.41182 74.2979 9.37759 74.0709 9.39453C73.8456 9.39471 73.6229 9.44142 73.4167 9.53166C73.2106 9.62199 73.0255 9.75387 72.8733 9.91905C72.7212 10.0841 72.6052 10.2789 72.5327 10.491C72.4602 10.7031 72.4328 10.9278 72.4522 11.151L72.4152 15.7222Z" fill="black"/>
<path d="M81.6523 11.2683L83.6553 10.9596C84.1062 10.9008 84.2318 10.6729 84.2318 10.401C84.2318 9.74694 83.7883 9.21778 82.7535 9.21778C82.554 9.20075 82.3531 9.22423 82.163 9.28669C81.9727 9.34923 81.7973 9.44946 81.6474 9.58142C81.4974 9.71339 81.376 9.87426 81.2904 10.0543C81.2049 10.2344 81.1569 10.4298 81.1497 10.6288L79.4497 10.2467C79.5901 8.9018 80.817 7.70386 82.7387 7.70386C85.1483 7.70386 86.0648 9.06345 86.0648 10.6435V14.5019C86.0605 14.9203 86.0926 15.3383 86.1609 15.7512H84.4239C84.3643 15.424 84.3395 15.0914 84.35 14.7591C84.0906 15.1545 83.7318 15.4757 83.3093 15.691C82.8866 15.9062 82.4148 16.0081 81.9405 15.9864C81.6099 16.0134 81.277 15.9735 80.9623 15.8691C80.6476 15.7646 80.3575 15.5977 80.1095 15.3786C79.8614 15.1594 79.6606 14.8925 79.5193 14.5941C79.378 14.2956 79.299 13.9717 79.2871 13.642C79.2871 12.2236 80.3145 11.4593 81.6523 11.2683ZM84.2318 12.5176V12.1649L82.1919 12.4661C81.9146 12.4756 81.6517 12.5908 81.4577 12.7878C81.2636 12.9849 81.1533 13.2486 81.1497 13.5244C81.152 13.6668 81.184 13.8071 81.2437 13.9365C81.3034 14.066 81.3896 14.1816 81.4965 14.2762C81.6035 14.3709 81.7291 14.4424 81.8653 14.4863C82.0016 14.5302 82.1454 14.5455 82.288 14.5312C82.557 14.5586 82.829 14.5245 83.0829 14.4317C83.3369 14.339 83.5663 14.1898 83.7537 13.9957C83.9411 13.8016 84.0815 13.5676 84.1643 13.3115C84.2472 13.0554 84.2702 12.7839 84.2318 12.5176Z" fill="black"/>
<path d="M89.231 4.00009C89.3923 3.99811 89.5525 4.02805 89.7022 4.08818C89.8519 4.14823 89.9881 4.23719 90.1029 4.35006C90.2177 4.46284 90.3089 4.59713 90.3711 4.74527C90.4333 4.89332 90.4653 5.05222 90.4653 5.21275C90.4653 5.53234 90.3376 5.83895 90.1103 6.06494C89.883 6.29102 89.5746 6.418 89.2532 6.418C88.9317 6.418 88.6233 6.29102 88.3961 6.06494C88.1687 5.83895 88.041 5.53234 88.041 5.21275C88.0409 4.89616 88.1653 4.59205 88.3877 4.36545C88.61 4.13894 88.9127 4.00775 89.231 4.00009ZM88.3219 15.7588V7.94664H90.1623V15.722L88.3219 15.7588Z" fill="black"/>
<path d="M94.4329 15.7217H92.5703V7.94633H94.3885V8.98254C94.6245 8.58474 94.9639 8.25741 95.3709 8.03502C95.778 7.81255 96.2378 7.70321 96.702 7.71844C98.6089 7.71844 99.5254 9.09274 99.5254 10.8051V15.7217H97.6628V11.1211C97.6628 10.1658 97.2268 9.3941 96.0589 9.3941C95.8265 9.39547 95.597 9.4458 95.3854 9.54164C95.174 9.63747 94.9852 9.77675 94.8317 9.95018C94.6781 10.1237 94.5632 10.3276 94.4944 10.5484C94.4257 10.7692 94.4048 11.002 94.4329 11.2314V15.7217Z" fill="black"/>
<path d="M101.795 15.7222V4.16187H103.657V15.7222H101.795Z" fill="black"/>
<path d="M106.984 4C107.307 4 107.618 4.12775 107.846 4.35521C108.075 4.58258 108.204 4.89099 108.204 5.21265C108.202 5.45035 108.13 5.68237 107.996 5.87946C107.862 6.07655 107.673 6.22985 107.452 6.32018C107.231 6.41051 106.988 6.43374 106.753 6.38703C106.519 6.34023 106.303 6.22564 106.134 6.05745C105.965 5.88935 105.85 5.67531 105.803 5.44218C105.756 5.20904 105.779 4.96739 105.87 4.74741C105.961 4.52753 106.115 4.33921 106.313 4.20621C106.512 4.07321 106.745 4.00146 106.984 4ZM106.068 15.7587V7.94655H107.915V15.722L106.068 15.7587Z" fill="black"/>
<path d="M112.189 15.7219H110.326V7.94654H112.137V8.98275C112.374 8.58599 112.713 8.2596 113.12 8.0373C113.527 7.815 113.987 7.70506 114.45 7.71865C116.364 7.71865 117.281 9.09295 117.281 10.8053V15.7219H115.418V11.1213C115.453 10.8976 115.435 10.669 115.368 10.4527C115.301 10.2364 115.186 10.038 115.031 9.87203C114.876 9.70616 114.686 9.57703 114.474 9.49428C114.262 9.4116 114.034 9.37736 113.807 9.39431C113.575 9.3956 113.346 9.44584 113.135 9.54176C112.923 9.63768 112.735 9.77705 112.582 9.95074C112.429 10.1243 112.315 10.3283 112.247 10.5492C112.179 10.77 112.159 11.0025 112.189 11.2316V15.7219Z" fill="black"/>
<path d="M123.651 11.2318L126.933 15.7222H124.649L122.35 12.5179L121.389 13.5248V15.7295H119.541V4.16187H121.389V11.0921L124.39 7.94676H126.866L123.651 11.2318Z" fill="black"/>
<path d="M22.7212 11.4508L35.8319 18.9376V33.9711L22.7573 41.5059L9.64659 34.031V18.9974L22.7212 11.4508ZM22.7212 0.399902L17.9099 3.17458L4.81127 10.7212L0 13.4959V19.0213V34.0429V39.5683L4.81127 42.3191L17.922 49.8059L22.7332 52.5566L27.5446 49.782L40.6192 42.2354L45.4304 39.4726V33.9473V18.9136V13.3883L40.6192 10.6375L27.5085 3.15066L22.6972 0.399902H22.7212Z" fill="black"/>
</g>
<defs>
<clipPath id="clip0_160_11954">
<rect width="140" height="53" fill="white"/>
</clipPath>
</defs>
</svg>
