<svg width="126" height="25" viewBox="0 0 126 25" fill="none" xmlns="http://www.w3.org/2000/svg">
<g clip-path="url(#clip0_2251_33671)">
<mask id="mask0_2251_33671" style="mask-type:luminance" maskUnits="userSpaceOnUse" x="0" y="0" width="126" height="25">
<path d="M125.072 0H0.0716553V25H125.072V0Z" fill="white"/>
</mask>
<g mask="url(#mask0_2251_33671)">
<path fill-rule="evenodd" clip-rule="evenodd" d="M43.4629 12.2708L31.1556 0V8.98437L18.9368 17.9792L31.1556 17.9896V24.5365L43.4629 12.2708Z" fill="black"/>
<path fill-rule="evenodd" clip-rule="evenodd" d="M0.0716553 12.2656L12.379 24.5313V15.6198L24.5977 6.55208L12.379 6.54167V0L0.0716553 12.2656Z" fill="black"/>
<path d="M61.8012 18.3955H52.3793V15.6924L57.7699 9.68197H52.5147V7.02051H61.7022V9.58822L56.1501 15.7132H61.796V18.3955H61.8012Z" fill="black"/>
<path d="M74.6553 7.02083L70.098 11.8073L74.749 18.3958H70.9782L67.9678 14.0469L66.6969 15.3854V18.3906H63.6188V1.65625H66.6969V11.25L70.6292 7.02083H74.6553Z" fill="black"/>
<path d="M88.046 5.91081L85.1762 6.79102C85.0668 6.20768 84.7752 5.67122 84.296 5.19727C83.8168 4.7181 83.1137 4.47852 82.1918 4.47852C81.4366 4.47852 80.8168 4.68685 80.3377 5.10352C79.8585 5.50456 79.6189 5.98893 79.6189 6.56185C79.6189 7.56185 80.2127 8.18164 81.4002 8.41081L83.6918 8.84831C85.1449 9.12435 86.2699 9.70246 87.072 10.5827C87.8741 11.4629 88.2752 12.4941 88.2752 13.6816C88.2752 15.0358 87.7335 16.2233 86.6554 17.2441C85.5929 18.2441 84.1554 18.7493 82.3481 18.7493C81.3116 18.7493 80.3793 18.5931 79.546 18.2858C78.7127 17.9785 78.0408 17.5671 77.5304 17.0618C77.0199 16.5358 76.6189 15.9889 76.3272 15.4212C76.0512 14.8379 75.8793 14.2337 75.8168 13.6191L78.7804 12.8327C78.8585 13.7129 79.197 14.4421 79.8012 15.0306C80.4158 15.6139 81.2752 15.9108 82.3689 15.9108C83.2022 15.9108 83.8481 15.7233 84.3116 15.3535C84.7908 14.9837 85.0304 14.4993 85.0304 13.8952C85.0304 13.416 84.8533 13.0098 84.4991 12.6712C84.1606 12.3171 83.671 12.0775 83.0408 11.9525L80.7491 11.4889C79.421 11.2129 78.3741 10.666 77.6033 9.84831C76.8324 9.0306 76.447 8.01497 76.447 6.79622C76.447 5.34831 77.0043 4.12956 78.1137 3.14518C79.2387 2.16081 80.5929 1.66602 82.1658 1.66602C83.1085 1.66602 83.947 1.79622 84.6866 2.05664C85.4262 2.31706 86.0199 2.67122 86.4679 3.11914C86.9158 3.55143 87.2647 3.99935 87.5095 4.45768C87.7543 4.92122 87.9366 5.4056 88.0408 5.91602L88.046 5.91081Z" fill="black"/>
<path d="M93.4623 22.8799H90.1967L92.879 16.9632L88.0405 7.02051H91.4884L94.5196 13.682L97.3217 7.02051H100.608L93.4571 22.8799H93.4623Z" fill="black"/>
<path d="M104.862 11.8486V18.3903H101.784V7.02051H104.768V8.43197C105.091 7.87467 105.555 7.4528 106.159 7.16113C106.763 6.86947 107.393 6.72363 108.055 6.72363C109.399 6.72363 110.414 7.14551 111.112 7.99447C111.82 8.8278 112.175 9.90592 112.175 11.234V18.4007H109.096V11.7653C109.096 11.0882 108.919 10.5413 108.565 10.1247C108.227 9.70801 107.701 9.49967 106.992 9.49967C106.346 9.49967 105.826 9.72363 105.44 10.1715C105.055 10.6195 104.862 11.182 104.862 11.859V11.8486Z" fill="black"/>
<path d="M119.722 9.5153C118.904 9.5153 118.217 9.80176 117.66 10.3695C117.102 10.9372 116.826 11.7184 116.826 12.7028C116.826 13.6872 117.102 14.4736 117.66 15.0622C118.232 15.6351 118.925 15.9163 119.743 15.9163C120.467 15.9163 121.045 15.7288 121.477 15.359C121.91 14.9736 122.201 14.5205 122.357 13.9945L125.066 14.8955C124.79 15.9424 124.186 16.8434 123.259 17.5986C122.331 18.3538 121.16 18.734 119.738 18.734C118.04 18.734 116.613 18.1663 115.456 17.0205C114.316 15.8643 113.743 14.4215 113.743 12.6976C113.743 10.9736 114.305 9.5153 115.43 8.37467C116.571 7.23405 117.977 6.66113 119.644 6.66113C121.097 6.66113 122.285 7.04134 123.206 7.79655C124.134 8.53613 124.727 9.43717 124.988 10.4997L122.232 11.4268C121.863 10.1455 121.019 9.51009 119.712 9.51009L119.722 9.5153Z" fill="black"/>
</g>
</g>
<defs>
<clipPath id="clip0_2251_33671">
<rect width="125" height="25" fill="white" transform="translate(0.0716553)"/>
</clipPath>
</defs>
</svg>
