<svg width="240" height="78" viewBox="0 0 240 78" fill="none" xmlns="http://www.w3.org/2000/svg">
<g clip-path="url(#clip0_2659_41930)">
<path fill-rule="evenodd" clip-rule="evenodd" d="M43.5558 77.429H40.8139C19.4589 77.429 2.14722 60.1174 2.14722 38.7623C2.14722 17.4073 19.4589 0.0957031 40.8139 0.0957031C62.1688 0.0957031 79.4805 17.4073 79.4805 38.7623C79.4805 40.6745 79.3415 42.5553 79.0728 44.3952H73.6604C73.9717 42.5656 74.1341 40.6839 74.1341 38.7623C74.1341 20.3602 59.2162 5.4422 40.8139 5.4422C22.4116 5.4422 7.49372 20.3602 7.49372 38.7623C7.49372 57.1646 22.4116 72.0825 40.8139 72.0825H60.6314C55.5707 75.099 49.7647 76.9951 43.5558 77.429ZM68.0389 66.3542H40.8139C25.5753 66.3542 13.2221 54.0008 13.2221 38.7623C13.2221 23.5239 25.5753 11.1706 40.8139 11.1706C56.0524 11.1706 68.4056 23.5239 68.4056 38.7623C68.4056 40.6911 68.2073 42.5755 67.8296 44.3952H62.3404C62.8093 42.5982 63.0591 40.7109 63.0591 38.7623C63.0591 26.4766 53.0996 16.517 40.8139 16.517C28.5282 16.517 18.5686 26.4766 18.5686 38.7623C18.5686 51.0482 28.5282 61.0076 40.8139 61.0076H72.5615C71.2159 62.9245 69.7011 64.7139 68.0389 66.3542ZM40.8139 55.2792H75.891C76.7009 53.5624 77.3884 51.7765 77.9423 49.9328H40.8139C34.6446 49.9328 29.6436 44.9316 29.6436 38.7623C29.6436 32.5932 34.6446 27.592 40.8139 27.592C46.9831 27.592 51.9842 32.5932 51.9842 38.7623C51.9842 40.82 51.4301 42.7425 50.4627 44.3952H56.3445C56.9827 42.6364 57.3307 40.7388 57.3307 38.7623C57.3307 29.6404 49.9358 22.2455 40.8139 22.2455C31.6919 22.2455 24.2969 29.6404 24.2969 38.7623C24.2969 47.8844 31.6919 55.2792 40.8139 55.2792ZM114.335 60.9971C101.614 60.9971 93.8853 51.9017 93.8853 38.7638C93.8853 25.2098 102.03 16.5304 114.335 16.5304C126.998 16.5304 134.845 25.507 134.845 38.7043C134.845 52.3773 126.641 60.9971 114.335 60.9971ZM114.335 22.4158C106.013 22.4158 100.841 28.8955 100.841 38.7043C100.841 48.751 106.132 54.993 114.335 54.993C122.777 54.993 127.889 48.5132 127.889 38.7638C127.889 28.7766 122.539 22.4158 114.335 22.4158ZM145.987 60.4027H139.745V29.1333H145.215L146.047 34.9591H146.463C148.425 30.8574 152.229 28.5388 156.926 28.5388C163.94 28.5388 167.745 33.5919 167.745 41.3201V60.4027H161.444V41.9741C161.444 36.5048 158.947 33.9486 154.548 33.9486C149.376 33.9486 145.987 38.0505 145.987 43.9952V60.4027ZM202.584 60.4027V16.6493H196.283V35.1969H195.925C194.321 31.3328 190.636 28.5388 185.285 28.5388C177.378 28.5388 172.028 34.8402 172.028 45.0058C172.028 54.8146 177.199 60.9971 185.226 60.9971C190.099 60.9971 194.261 58.6787 195.925 54.8741H196.283L196.997 60.4027H202.584ZM196.283 46.6108C196.283 51.7828 192.597 55.6469 187.129 55.6469C181.896 55.6469 178.448 52.0206 178.448 45.0058C178.448 38.2883 181.54 33.9486 187.246 33.9486C192.418 33.9486 196.283 37.456 196.283 43.1629V46.6108ZM222.546 60.9971C213.391 60.9971 207.327 54.3985 207.327 44.8275C207.327 35.1969 213.391 28.5388 222.546 28.5388C231.702 28.5388 237.705 35.1969 237.705 44.8275C237.705 54.3985 231.702 60.9971 222.546 60.9971ZM222.546 33.9486C217.135 33.9486 213.747 38.11 213.747 44.768C213.747 51.3072 216.958 55.528 222.546 55.528C227.896 55.528 231.284 51.4856 231.284 44.7086C231.284 38.2883 228.135 33.9486 222.546 33.9486Z" fill="black"/>
</g>
<defs>
<clipPath id="clip0_2659_41930">
<rect width="240" height="77.3333" fill="white"/>
</clipPath>
</defs>
</svg>
