<svg width="140" height="25" viewBox="0 0 140 25" fill="none" xmlns="http://www.w3.org/2000/svg">
<g clip-path="url(#clip0_16_3)">
<path d="M45.4185 7.54274L42.218 16.5459C42.2034 16.5893 42.1745 16.6266 42.136 16.6519C42.0976 16.6772 42.0516 16.689 42.0057 16.6853H41.7632C41.7171 16.6871 41.6715 16.6748 41.6328 16.6497C41.594 16.6248 41.5641 16.5885 41.5469 16.5459L39.1476 10.2316L36.7523 16.5459C36.7363 16.5885 36.7071 16.625 36.669 16.6501C36.6308 16.6751 36.5856 16.6875 36.5399 16.6853H36.2935C36.2476 16.6879 36.2022 16.6757 36.164 16.6506C36.1258 16.6254 36.0967 16.5887 36.0811 16.5459L32.8807 7.54589C32.8315 7.40636 32.8846 7.31964 33.0209 7.31964H34.0114C34.0581 7.31495 34.1049 7.32622 34.1442 7.35159C34.1836 7.37696 34.213 7.4149 34.2277 7.45918L36.5089 14.2755L38.8282 8.03305C38.8449 7.99007 38.8748 7.95342 38.9137 7.92836C38.9526 7.9033 38.9983 7.89111 39.0446 7.89353H39.253C39.2987 7.89122 39.3439 7.90352 39.3822 7.92862C39.4204 7.95372 39.4495 7.99032 39.4653 8.03305L41.8536 14.2755L44.0818 7.45918C44.0964 7.4149 44.126 7.37696 44.1653 7.35159C44.2046 7.32622 44.2514 7.31495 44.298 7.31964H45.2735C45.4137 7.31964 45.4668 7.40636 45.4177 7.54274" fill="black"/>
<path d="M59.3473 11.9271C59.3384 12.8544 59.054 13.7583 58.5296 14.525C58.0053 15.2917 57.2647 15.8868 56.4009 16.2356C55.5373 16.5843 54.5892 16.6709 53.6761 16.4846C52.763 16.2983 51.9258 15.8473 51.2698 15.1885C50.6138 14.5297 50.1685 13.6925 49.9899 12.7824C49.8113 11.8723 49.9075 10.93 50.2662 10.074C50.6249 9.21818 51.2302 8.48708 52.0058 7.97279C52.7815 7.4585 53.6927 7.18405 54.6247 7.18401C55.2512 7.17525 55.873 7.29228 56.4529 7.52812C57.0329 7.76396 57.559 8.11374 57.9999 8.55656C58.4408 8.99937 58.7873 9.52614 59.0189 10.1053C59.2504 10.6844 59.3621 11.3041 59.3473 11.9271ZM58.0376 11.9271C58.0376 9.74435 56.6066 8.24111 54.6247 8.24111C52.643 8.24111 51.212 9.74435 51.212 11.9271C51.212 14.1099 52.643 15.6133 54.6247 15.6133C56.6066 15.6133 58.0376 14.1099 58.0376 11.9271Z" fill="black"/>
<path d="M71.854 16.1612C71.8842 16.1959 71.9031 16.2389 71.9081 16.2846C71.9131 16.3302 71.9043 16.3763 71.8824 16.4168C71.8606 16.4572 71.827 16.4902 71.786 16.5113C71.745 16.5323 71.6985 16.5405 71.6527 16.5348H70.7605C70.7314 16.5339 70.7031 16.5259 70.6779 16.5115C70.6528 16.497 70.6316 16.4765 70.6163 16.452L68.377 13.0907H65.9706V16.3464C65.97 16.3963 65.9497 16.4441 65.9142 16.4795C65.8787 16.5149 65.8306 16.5349 65.7804 16.5356H64.9087C64.8587 16.5348 64.8108 16.5145 64.7755 16.4792C64.7401 16.4439 64.72 16.3962 64.7194 16.3464V7.50883C64.7202 7.45905 64.7404 7.41151 64.7757 7.37623C64.811 7.34094 64.8588 7.32066 64.9087 7.31964H68.3366C70.7359 7.31964 71.9206 8.57382 71.9206 10.2048C71.9352 10.8529 71.7162 11.4848 71.3034 11.9863C70.8905 12.4879 70.311 12.8259 69.6694 12.9394L71.854 16.1612ZM68.0918 12.0337C69.9785 12.0337 70.6124 11.2556 70.6124 10.2056C70.6124 9.15558 69.9785 8.37753 68.0918 8.37753H65.9698V12.0337H68.0918Z" fill="black"/>
<path d="M86.5946 7.17141H86.879C86.9044 7.16979 86.9299 7.17358 86.9537 7.18251C86.9775 7.19144 86.9991 7.20533 87.0171 7.22323C87.0351 7.24113 87.049 7.26264 87.058 7.28633C87.067 7.31002 87.0709 7.33534 87.0692 7.3606V16.3472C87.0709 16.3724 87.067 16.3977 87.058 16.4214C87.049 16.4451 87.0351 16.4666 87.0171 16.4845C86.9991 16.5024 86.9775 16.5163 86.9537 16.5252C86.9299 16.5341 86.9044 16.538 86.879 16.5363H86.0074C85.982 16.538 85.9566 16.5341 85.9327 16.5252C85.909 16.5163 85.8873 16.5024 85.8694 16.4845C85.8513 16.4666 85.8374 16.4451 85.8284 16.4214C85.8194 16.3977 85.8156 16.3724 85.8172 16.3472V9.96751L82.3055 15.0244C82.2939 15.0494 82.2755 15.0706 82.2522 15.0854C82.229 15.1003 82.2019 15.1082 82.1743 15.1082C82.1467 15.1082 82.1196 15.1003 82.0963 15.0854C82.0731 15.0706 82.0546 15.0494 82.0432 15.0244L78.5321 9.96751V16.3464C78.5337 16.3716 78.53 16.397 78.521 16.4206C78.512 16.4443 78.498 16.4658 78.48 16.4837C78.462 16.5017 78.4404 16.5155 78.4166 16.5244C78.3928 16.5334 78.3673 16.5371 78.3419 16.5355H77.4704C77.445 16.5371 77.4195 16.5334 77.3956 16.5244C77.3719 16.5155 77.3503 16.5017 77.3322 16.4837C77.3142 16.4658 77.3003 16.4443 77.2913 16.4206C77.2823 16.397 77.2786 16.3716 77.2801 16.3464V7.35981C77.2786 7.33455 77.2823 7.30923 77.2913 7.28554C77.3003 7.26186 77.3142 7.24034 77.3322 7.22244C77.3503 7.20454 77.3719 7.19066 77.3956 7.18173C77.4195 7.17279 77.445 7.169 77.4704 7.17062H77.7516C77.7989 7.1708 77.8453 7.18263 77.8868 7.20505C77.9282 7.22748 77.9635 7.2598 77.9893 7.29912L82.1731 13.1112L86.36 7.29912C86.3845 7.26 86.4186 7.22769 86.4591 7.20522C86.4995 7.18274 86.5451 7.17084 86.5914 7.17062" fill="black"/>
<path d="M101.157 7.50883V16.3456C101.156 16.3955 101.136 16.4432 101.1 16.4785C101.065 16.5138 101.016 16.5339 100.967 16.5348H100.095C100.045 16.5339 99.9969 16.5138 99.9611 16.4785C99.9254 16.4432 99.9052 16.3955 99.9043 16.3456V12.3198H94.1383V16.3456C94.1374 16.3955 94.1172 16.4432 94.0815 16.4785C94.0466 16.5138 93.999 16.5339 93.9485 16.5348H93.0766C93.0262 16.5339 92.9785 16.5138 92.9428 16.4785C92.9079 16.4432 92.8878 16.3955 92.8868 16.3456V7.50883C92.8878 7.45891 92.9079 7.41126 92.9428 7.37595C92.9785 7.34065 93.0262 7.32046 93.0766 7.31964H93.9485C93.999 7.32046 94.0466 7.34065 94.0815 7.37595C94.1172 7.41126 94.1374 7.45891 94.1383 7.50883V11.2627H99.9043V7.50883C99.9052 7.45891 99.9254 7.41126 99.9611 7.37595C99.9969 7.34065 100.045 7.32046 100.095 7.31964H100.967C101.016 7.32046 101.065 7.34065 101.1 7.37595C101.136 7.41126 101.156 7.45891 101.157 7.50883Z" fill="black"/>
<path d="M115.974 11.9271C115.964 12.8544 115.68 13.7583 115.156 14.525C114.631 15.2917 113.891 15.8868 113.027 16.2356C112.163 16.5843 111.215 16.6709 110.302 16.4846C109.389 16.2983 108.552 15.8473 107.896 15.1885C107.24 14.5297 106.794 13.6925 106.616 12.7824C106.438 11.8723 106.534 10.93 106.892 10.074C107.251 9.21818 107.856 8.48708 108.632 7.97279C109.407 7.4585 110.319 7.18405 111.251 7.18401C111.877 7.17525 112.499 7.29228 113.079 7.52812C113.659 7.76396 114.185 8.11374 114.626 8.55656C115.067 8.99937 115.413 9.52614 115.645 10.1053C115.876 10.6844 115.988 11.3041 115.974 11.9271ZM114.663 11.9271C114.663 9.74435 113.232 8.24111 111.251 8.24111C109.269 8.24111 107.838 9.74435 107.838 11.9271C107.838 14.1099 109.269 15.6133 111.251 15.6133C113.232 15.6133 114.663 14.1099 114.663 11.9271Z" fill="black"/>
<path d="M127.902 15.6661V16.3456C127.904 16.3708 127.901 16.3961 127.891 16.4199C127.882 16.4435 127.869 16.4651 127.85 16.483C127.833 16.5008 127.811 16.5148 127.787 16.5237C127.763 16.5326 127.738 16.5364 127.713 16.5348H121.537C121.486 16.5339 121.439 16.5138 121.403 16.4785C121.367 16.4432 121.347 16.3955 121.346 16.3456V7.50883C121.347 7.45891 121.367 7.41126 121.403 7.37595C121.439 7.34065 121.486 7.32046 121.537 7.31964H122.408C122.458 7.32066 122.506 7.34094 122.542 7.37623C122.577 7.41151 122.597 7.45905 122.598 7.50883V15.4769H127.714C127.74 15.4753 127.766 15.479 127.79 15.488C127.814 15.4969 127.835 15.5108 127.853 15.5287C127.871 15.5466 127.885 15.5681 127.894 15.5918C127.902 15.6155 127.907 15.6408 127.905 15.6661" fill="black"/>
<path d="M139.936 15.6661V16.3455C139.938 16.3708 139.934 16.3961 139.925 16.4198C139.916 16.4435 139.902 16.465 139.884 16.483C139.865 16.5008 139.844 16.5147 139.82 16.5237C139.797 16.5326 139.771 16.5363 139.745 16.5348H133.076C133.026 16.5339 132.978 16.5138 132.942 16.4785C132.907 16.4431 132.886 16.3955 132.886 16.3455V7.50878C132.886 7.45886 132.907 7.41121 132.942 7.37591C132.978 7.3406 133.026 7.3204 133.076 7.3196H139.594C139.62 7.31797 139.645 7.32176 139.669 7.33069C139.693 7.33963 139.714 7.35351 139.732 7.37141C139.751 7.38931 139.764 7.41082 139.774 7.43451C139.782 7.4582 139.786 7.48352 139.785 7.50878V8.18829C139.786 8.21356 139.782 8.23888 139.774 8.26256C139.764 8.28626 139.751 8.30776 139.732 8.32567C139.714 8.34357 139.693 8.35745 139.669 8.36639C139.645 8.37532 139.62 8.3791 139.594 8.37748H134.136V11.2626H138.987C139.013 11.2611 139.037 11.2647 139.061 11.2734C139.084 11.2821 139.106 11.2957 139.124 11.3131C139.142 11.3306 139.156 11.3516 139.165 11.3749C139.174 11.3981 139.178 11.423 139.177 11.4479V12.1313C139.179 12.1564 139.174 12.1816 139.166 12.2051C139.157 12.2287 139.143 12.25 139.124 12.2678C139.107 12.2857 139.085 12.2995 139.061 12.3084C139.038 12.3173 139.013 12.3212 138.987 12.3197H134.136V15.4768H139.746C139.772 15.4752 139.797 15.479 139.821 15.4879C139.845 15.4969 139.866 15.5108 139.885 15.5286C139.903 15.5466 139.917 15.5681 139.926 15.5918C139.934 15.6155 139.939 15.6408 139.937 15.6661" fill="black"/>
<path d="M12.2176 24.5193C8.98511 24.5172 5.88539 23.2297 3.5986 20.9393C1.31182 18.6489 0.0247447 15.5426 0.0197754 12.3019C0.024744 9.06117 1.31175 5.95468 3.59849 3.66399C5.88523 1.3733 8.98496 0.085434 12.2176 0.0829468C15.4504 0.085434 18.5501 1.3733 20.8367 3.66399C23.1235 5.95468 24.4106 9.06117 24.4155 12.3019C24.4106 15.5426 23.1235 18.6489 20.8367 20.9393C18.5499 23.2297 15.4502 24.5172 12.2176 24.5193ZM12.2176 1.02359C9.23371 1.02566 6.37238 2.2143 4.26152 4.32867C2.15065 6.44305 0.962632 9.31051 0.958075 12.3019C0.960972 15.2937 2.14853 18.162 4.2598 20.2764C6.37106 22.391 9.23334 23.5787 12.2176 23.5787C15.202 23.5787 18.0643 22.391 20.1755 20.2764C22.2868 18.162 23.4743 15.2937 23.4772 12.3019C23.4726 9.31051 22.2846 6.44305 20.1738 4.32867C18.0629 2.2143 15.2016 1.02566 12.2176 1.02359Z" fill="black"/>
<path d="M13.7597 22.5862C11.0816 22.5842 8.51364 21.5173 6.61916 19.6195C4.72469 17.7218 3.65844 15.1482 3.6543 12.4633C3.65844 9.77846 4.72469 7.20492 6.61916 5.30718C8.51364 3.40944 11.0816 2.3425 13.7597 2.34042C16.4379 2.3425 19.0059 3.40944 20.9004 5.30718C22.7948 7.20492 23.8611 9.77846 23.8652 12.4633C23.8611 15.1482 22.7948 17.7218 20.9004 19.6195C19.0059 21.5173 16.4379 22.5842 13.7597 22.5862ZM13.7597 3.071C11.275 3.07307 8.89256 4.06309 7.13501 5.82387C5.37745 7.58465 4.38832 9.97237 4.3846 12.4633C4.38873 14.9541 5.37807 17.3414 7.13558 19.1018C8.89309 20.8623 11.2753 21.852 13.7597 21.8541C16.2442 21.852 18.6264 20.8623 20.3839 19.1018C22.1414 17.3414 23.1308 14.9541 23.1349 12.4633C23.1308 9.97264 22.1414 7.5853 20.3839 5.82487C18.6264 4.06442 16.2442 3.07464 13.7597 3.07257V3.071Z" fill="black"/>
<path d="M15.3014 20.6548C13.1778 20.6532 11.1416 19.8071 9.63935 18.3023C8.13714 16.7975 7.29164 14.7568 7.28833 12.628C7.29164 10.499 8.13714 8.45835 9.63935 6.95357C11.1416 5.44878 13.1778 4.60277 15.3014 4.60112C17.4252 4.60236 19.4616 5.44823 20.9639 6.95311C22.4662 8.45799 23.3115 10.4989 23.3144 12.628C23.3111 14.7568 22.4656 16.7975 20.9634 18.3023C19.4612 19.8071 17.425 20.6532 15.3014 20.6548ZM15.3014 5.12316C13.3157 5.12441 11.4118 5.91529 10.0071 7.32225C8.60246 8.72922 7.81196 10.6373 7.80906 12.628C7.81237 14.6182 8.60307 16.526 10.0076 17.9326C11.4122 19.3392 13.316 20.1299 15.3014 20.1311C17.2867 20.1299 19.1905 19.3392 20.5951 17.9326C21.9997 16.526 22.7905 14.6182 22.7938 12.628C22.7908 10.6373 22.0003 8.72922 20.5957 7.32225C19.1911 5.91529 17.287 5.12441 15.3014 5.12316Z" fill="black"/>
<path d="M16.8435 18.7217C15.2745 18.7205 13.77 18.0954 12.66 16.9836C11.5501 15.8717 10.9254 14.364 10.9229 12.791C10.925 11.2177 11.5496 9.70951 12.6595 8.59734C13.7695 7.48517 15.2743 6.85987 16.8435 6.85863C18.4129 6.85987 19.9177 7.48517 21.0277 8.59734C22.1377 9.70951 22.7621 11.2177 22.7642 12.791C22.7618 14.364 22.137 15.8717 21.0271 16.9836C19.9172 18.0954 18.4127 18.7205 16.8435 18.7217ZM16.8435 7.17217C15.3572 7.17342 13.932 7.76568 12.8807 8.81905C11.8294 9.87243 11.2378 11.3009 11.2357 12.791C11.2382 14.2808 11.8299 15.7088 12.8813 16.7619C13.9325 17.8148 15.3574 18.4069 16.8435 18.4082C18.3297 18.4069 19.7546 17.8148 20.8059 16.7619C21.8572 15.7088 22.4489 14.2808 22.4514 12.791C22.4494 11.3009 21.8579 9.87243 20.8065 8.81905C19.7552 7.76568 18.33 7.17342 16.8435 7.17217Z" fill="black"/>
</g>
<defs>
<clipPath id="clip0_16_3">
<rect width="140" height="24.5711" fill="white"/>
</clipPath>
</defs>
</svg>
