<?xml version="1.0" standalone="no"?>
<!DOCTYPE svg PUBLIC "-//W3C//DTD SVG 20010904//EN"
 "http://www.w3.org/TR/2001/REC-SVG-20010904/DTD/svg10.dtd">
<svg version="1.0" xmlns="http://www.w3.org/2000/svg"
 width="2500.000000pt" height="2500.000000pt" viewBox="0 0 2500.000000 2500.000000"
 preserveAspectRatio="xMidYMid meet">

<g transform="translate(0.000000,2500.000000) scale(0.100000,-0.100000)"
fill="#000000" stroke="none">
<path d="M10865 12474 c-550 -7 -3032 -38 -5515 -68 -2483 -31 -4703 -58
-4933 -62 l-418 -7 5 -111 c3 -61 8 -183 11 -271 30 -844 177 -1815 406 -2674
711 -2668 2296 -5035 4499 -6717 1907 -1456 4182 -2328 6570 -2519 611 -48
1349 -50 1960 -4 467 34 1021 110 1468 199 83 16 153 30 156 30 3 0 6 20 6 45
0 25 -4 45 -9 45 -11 0 -22 49 -28 132 -2 38 -9 68 -14 68 -5 0 -9 9 -9 20 0
11 -4 20 -10 20 -6 0 -10 32 -10 75 0 62 -4 79 -20 95 -16 16 -20 33 -20 85 0
36 -4 65 -9 65 -13 0 -23 53 -28 152 -4 79 -6 88 -24 88 -17 0 -19 8 -19 80 0
47 -4 80 -10 80 -5 0 -10 9 -10 20 0 11 -4 20 -9 20 -5 0 -12 30 -14 68 -6 83
-17 132 -28 132 -5 0 -9 27 -9 60 0 33 -4 60 -9 60 -11 0 -22 49 -28 133 -2
37 -9 67 -14 67 -5 0 -9 9 -9 20 0 11 -4 20 -10 20 -6 0 -10 27 -10 60 0 41
-7 74 -20 100 -15 29 -20 59 -20 115 0 62 -4 79 -20 95 -16 16 -20 33 -20 85
0 36 -4 65 -9 65 -11 0 -22 49 -28 133 -2 37 -9 67 -14 67 -5 0 -9 9 -9 20 0
11 -4 20 -10 20 -6 0 -10 27 -10 60 0 41 -7 74 -20 100 -13 26 -20 59 -20 100
0 33 -4 60 -10 60 -5 0 -10 18 -10 40 0 22 -4 40 -10 40 -6 0 -10 27 -10 60 0
33 -4 60 -9 60 -11 0 -22 49 -28 133 -2 37 -9 67 -14 67 -5 0 -9 9 -9 20 0 11
-4 20 -10 20 -6 0 -10 27 -10 60 0 41 -7 74 -20 100 -15 29 -20 59 -20 115 0
62 -4 79 -20 95 -16 16 -20 33 -20 85 0 37 -4 65 -10 65 -5 0 -10 9 -10 20 0
11 -4 20 -9 20 -5 0 -12 30 -14 68 -6 83 -17 132 -28 132 -5 0 -9 27 -9 60 0
33 -4 60 -9 60 -11 0 -22 49 -28 133 -2 37 -8 67 -13 67 -10 0 -21 51 -27 133
-2 37 -9 67 -14 67 -5 0 -9 9 -9 20 0 11 -4 20 -10 20 -6 0 -10 27 -10 60 0
41 -7 74 -20 100 -13 26 -20 59 -20 100 0 33 -4 60 -9 60 -13 0 -22 52 -28
148 -3 65 -9 88 -24 103 -13 13 -19 33 -19 64 0 26 -8 60 -17 78 -10 18 -21
66 -25 107 -8 95 -18 140 -29 140 -5 0 -9 27 -9 60 0 33 -4 60 -9 60 -11 0
-22 49 -28 133 -2 37 -9 67 -14 67 -5 0 -9 9 -9 20 0 11 -4 20 -10 20 -6 0
-10 27 -10 60 0 41 -7 74 -20 100 -15 30 -20 59 -20 120 0 73 -2 80 -20 80
-18 0 -20 7 -20 80 0 44 -4 80 -9 80 -13 0 -23 53 -28 153 -4 78 -6 87 -24 87
-17 0 -19 7 -19 60 0 41 -7 74 -20 100 -13 26 -20 59 -20 100 0 33 -4 60 -9
60 -11 0 -22 49 -28 133 -2 37 -9 67 -14 67 -5 0 -9 9 -9 20 0 11 -4 20 -10
20 -6 0 -10 32 -10 75 0 62 -4 79 -20 95 -16 16 -20 33 -20 85 0 36 -4 65 -9
65 -11 0 -22 49 -28 133 -2 37 -8 67 -13 67 -10 0 -21 51 -27 133 -2 37 -9 67
-14 67 -5 0 -9 9 -9 20 0 11 -4 20 -9 20 -5 0 -12 30 -14 68 -6 83 -17 132
-28 132 -5 0 -9 27 -9 60 0 33 -4 60 -9 60 -11 0 -22 49 -28 133 -2 37 -8 67
-13 67 -10 0 -21 51 -27 133 -2 37 -9 67 -14 67 -5 0 -9 9 -9 20 0 11 -4 20
-10 20 -6 0 -10 32 -10 75 0 62 -4 79 -20 95 -16 16 -20 33 -20 85 0 36 -4 65
-9 65 -11 0 -22 49 -28 133 -2 37 -9 67 -14 67 -5 0 -9 9 -9 20 0 11 -4 20
-10 20 -6 0 -10 27 -10 60 0 41 -7 74 -20 100 -13 26 -20 59 -20 100 0 33 -4
60 -10 60 -5 0 -10 18 -10 40 0 22 -4 40 -10 40 -6 0 -10 27 -10 60 0 33 -4
60 -9 60 -11 0 -22 49 -28 133 -2 37 -9 67 -14 67 -5 0 -9 9 -9 20 0 11 -4 20
-10 20 -6 0 -10 27 -10 60 0 41 -7 74 -20 100 -15 29 -20 59 -20 115 0 62 -4
79 -20 95 -14 14 -20 33 -20 65 0 26 -8 60 -17 78 -10 18 -21 66 -25 107 -8
95 -18 140 -29 140 -5 0 -9 27 -9 60 0 33 -4 60 -9 60 -11 0 -22 49 -28 133
-2 37 -8 67 -13 67 -10 0 -21 51 -27 133 -2 37 -9 67 -14 67 -5 0 -9 9 -9 20
0 11 -4 20 -9 20 -9 0 -18 52 -27 173 -3 37 -9 67 -14 67 -4 0 -10 21 -13 48
-3 26 -10 67 -17 92 -6 25 -16 70 -21 100 -24 133 -32 166 -41 190 -6 14 -12
34 -14 45 -2 11 -5 27 -7 35 -2 8 -12 52 -22 98 l-18 82 -316 -1 c-174 -1
-766 -8 -1316 -15z"/>
<path d="M12800 11200 c0 -22 5 -40 10 -40 6 0 10 18 10 40 0 22 -4 40 -10 40
-5 0 -10 -18 -10 -40z"/>
<path d="M15540 430 c0 -5 9 -10 20 -10 11 0 20 5 20 10 0 6 -9 10 -20 10 -11
0 -20 -4 -20 -10z"/>
<path d="M15480 371 c0 -5 9 -7 20 -4 11 3 20 7 20 9 0 2 -9 4 -20 4 -11 0
-20 -4 -20 -9z"/>
<path d="M15196 315 c-3 -8 -1 -15 4 -15 6 0 10 6 10 13 0 9 3 8 9 -2 5 -8 11
-9 15 -3 3 5 -1 13 -10 16 -21 8 -21 8 -28 -9z"/>
</g>
</svg>
